<mxfile host="app.diagrams.net" modified="2024-01-13T04:10:32.952Z" agent="Mozilla/5.0 (X11; Ubuntu; Linux x86_64; rv:121.0) Gecko/20100101 Firefox/121.0" etag="vpSUI4U8C02YernKTqt-" version="22.1.18" type="github" pages="2">
  <diagram name="init_data_on_flash" id="_rqPvwlqcu5d_cv0ufVX">
    <mxGraphModel dx="1440" dy="721" grid="1" gridSize="10" guides="1" tooltips="1" connect="1" arrows="1" fold="1" page="1" pageScale="1" pageWidth="850" pageHeight="1100" math="0" shadow="0">
      <root>
        <mxCell id="0" />
        <mxCell id="1" parent="0" />
        <mxCell id="lFg5hrSPJq1oh815YFEz-1" value="MCU" style="shape=umlLifeline;perimeter=lifelinePerimeter;whiteSpace=wrap;html=1;container=1;dropTarget=0;collapsible=0;recursiveResize=0;outlineConnect=0;portConstraint=eastwest;newEdgeStyle={&quot;curved&quot;:0,&quot;rounded&quot;:0};" vertex="1" parent="1">
          <mxGeometry x="104" y="40" width="100" height="560" as="geometry" />
        </mxCell>
        <mxCell id="lFg5hrSPJq1oh815YFEz-8" value="" style="html=1;points=[[0,0,0,0,5],[0,1,0,0,-5],[1,0,0,0,5],[1,1,0,0,-5]];perimeter=orthogonalPerimeter;outlineConnect=0;targetShapes=umlLifeline;portConstraint=eastwest;newEdgeStyle={&quot;curved&quot;:0,&quot;rounded&quot;:0};" vertex="1" parent="lFg5hrSPJq1oh815YFEz-1">
          <mxGeometry x="45" y="80" width="10" height="80" as="geometry" />
        </mxCell>
        <mxCell id="lFg5hrSPJq1oh815YFEz-10" value="" style="html=1;points=[[0,0,0,0,5],[0,1,0,0,-5],[1,0,0,0,5],[1,1,0,0,-5]];perimeter=orthogonalPerimeter;outlineConnect=0;targetShapes=umlLifeline;portConstraint=eastwest;newEdgeStyle={&quot;curved&quot;:0,&quot;rounded&quot;:0};" vertex="1" parent="lFg5hrSPJq1oh815YFEz-1">
          <mxGeometry x="45" y="180" width="10" height="80" as="geometry" />
        </mxCell>
        <mxCell id="lFg5hrSPJq1oh815YFEz-19" value="" style="html=1;points=[[0,0,0,0,5],[0,1,0,0,-5],[1,0,0,0,5],[1,1,0,0,-5]];perimeter=orthogonalPerimeter;outlineConnect=0;targetShapes=umlLifeline;portConstraint=eastwest;newEdgeStyle={&quot;curved&quot;:0,&quot;rounded&quot;:0};" vertex="1" parent="lFg5hrSPJq1oh815YFEz-1">
          <mxGeometry x="45" y="310" width="10" height="40" as="geometry" />
        </mxCell>
        <mxCell id="lFg5hrSPJq1oh815YFEz-20" value="Read default" style="html=1;align=left;spacingLeft=2;endArrow=block;rounded=0;edgeStyle=orthogonalEdgeStyle;curved=0;rounded=0;" edge="1" target="lFg5hrSPJq1oh815YFEz-19" parent="lFg5hrSPJq1oh815YFEz-1">
          <mxGeometry relative="1" as="geometry">
            <mxPoint x="50" y="290" as="sourcePoint" />
            <Array as="points">
              <mxPoint x="80" y="320" />
            </Array>
            <mxPoint as="offset" />
          </mxGeometry>
        </mxCell>
        <mxCell id="lFg5hrSPJq1oh815YFEz-26" value="" style="html=1;points=[[0,0,0,0,5],[0,1,0,0,-5],[1,0,0,0,5],[1,1,0,0,-5]];perimeter=orthogonalPerimeter;outlineConnect=0;targetShapes=umlLifeline;portConstraint=eastwest;newEdgeStyle={&quot;curved&quot;:0,&quot;rounded&quot;:0};" vertex="1" parent="lFg5hrSPJq1oh815YFEz-1">
          <mxGeometry x="45" y="440" width="10" height="120" as="geometry" />
        </mxCell>
        <mxCell id="lFg5hrSPJq1oh815YFEz-4" value="EPPROM" style="shape=umlLifeline;perimeter=lifelinePerimeter;whiteSpace=wrap;html=1;container=1;dropTarget=0;collapsible=0;recursiveResize=0;outlineConnect=0;portConstraint=eastwest;newEdgeStyle={&quot;curved&quot;:0,&quot;rounded&quot;:0};" vertex="1" parent="1">
          <mxGeometry x="310" y="40" width="100" height="530" as="geometry" />
        </mxCell>
        <mxCell id="lFg5hrSPJq1oh815YFEz-5" value="Uart" style="shape=umlLifeline;perimeter=lifelinePerimeter;whiteSpace=wrap;html=1;container=1;dropTarget=0;collapsible=0;recursiveResize=0;outlineConnect=0;portConstraint=eastwest;newEdgeStyle={&quot;curved&quot;:0,&quot;rounded&quot;:0};" vertex="1" parent="1">
          <mxGeometry x="470" y="40" width="100" height="520" as="geometry" />
        </mxCell>
        <mxCell id="lFg5hrSPJq1oh815YFEz-27" value="" style="html=1;points=[[0,0,0,0,5],[0,1,0,0,-5],[1,0,0,0,5],[1,1,0,0,-5]];perimeter=orthogonalPerimeter;outlineConnect=0;targetShapes=umlLifeline;portConstraint=eastwest;newEdgeStyle={&quot;curved&quot;:0,&quot;rounded&quot;:0};" vertex="1" parent="lFg5hrSPJq1oh815YFEz-5">
          <mxGeometry x="45" y="445" width="10" height="35" as="geometry" />
        </mxCell>
        <mxCell id="lFg5hrSPJq1oh815YFEz-6" value="nRF24l01" style="shape=umlLifeline;perimeter=lifelinePerimeter;whiteSpace=wrap;html=1;container=1;dropTarget=0;collapsible=0;recursiveResize=0;outlineConnect=0;portConstraint=eastwest;newEdgeStyle={&quot;curved&quot;:0,&quot;rounded&quot;:0};" vertex="1" parent="1">
          <mxGeometry x="630" y="40" width="100" height="540" as="geometry" />
        </mxCell>
        <mxCell id="lFg5hrSPJq1oh815YFEz-29" value="" style="html=1;points=[[0,0,0,0,5],[0,1,0,0,-5],[1,0,0,0,5],[1,1,0,0,-5]];perimeter=orthogonalPerimeter;outlineConnect=0;targetShapes=umlLifeline;portConstraint=eastwest;newEdgeStyle={&quot;curved&quot;:0,&quot;rounded&quot;:0};" vertex="1" parent="lFg5hrSPJq1oh815YFEz-6">
          <mxGeometry x="46" y="495" width="10" height="35" as="geometry" />
        </mxCell>
        <mxCell id="lFg5hrSPJq1oh815YFEz-7" value="Power ON" style="html=1;verticalAlign=bottom;startArrow=circle;startFill=1;endArrow=open;startSize=6;endSize=8;curved=0;rounded=0;" edge="1" parent="1" target="lFg5hrSPJq1oh815YFEz-8">
          <mxGeometry width="80" relative="1" as="geometry">
            <mxPoint x="54" y="130" as="sourcePoint" />
            <mxPoint x="144" y="130" as="targetPoint" />
          </mxGeometry>
        </mxCell>
        <mxCell id="lFg5hrSPJq1oh815YFEz-9" value="Started ak kit " style="html=1;whiteSpace=wrap;" vertex="1" parent="1">
          <mxGeometry x="24" y="160" width="120" height="30" as="geometry" />
        </mxCell>
        <mxCell id="lFg5hrSPJq1oh815YFEz-11" value="app_task_init();" style="text;html=1;strokeColor=none;fillColor=none;align=center;verticalAlign=middle;whiteSpace=wrap;rounded=0;" vertex="1" parent="1">
          <mxGeometry x="29" y="220" width="110" height="30" as="geometry" />
        </mxCell>
        <mxCell id="lFg5hrSPJq1oh815YFEz-12" value="" style="html=1;points=[[0,0,0,0,5],[0,1,0,0,-5],[1,0,0,0,5],[1,1,0,0,-5]];perimeter=orthogonalPerimeter;outlineConnect=0;targetShapes=umlLifeline;portConstraint=eastwest;newEdgeStyle={&quot;curved&quot;:0,&quot;rounded&quot;:0};" vertex="1" parent="1">
          <mxGeometry x="355" y="224" width="10" height="50" as="geometry" />
        </mxCell>
        <mxCell id="lFg5hrSPJq1oh815YFEz-13" value="&lt;div&gt;read data init&lt;/div&gt;" style="html=1;verticalAlign=bottom;endArrow=block;curved=0;rounded=0;entryX=0;entryY=0;entryDx=0;entryDy=5;" edge="1" target="lFg5hrSPJq1oh815YFEz-12" parent="1" source="lFg5hrSPJq1oh815YFEz-10">
          <mxGeometry relative="1" as="geometry">
            <mxPoint x="285" y="229" as="sourcePoint" />
          </mxGeometry>
        </mxCell>
        <mxCell id="lFg5hrSPJq1oh815YFEz-14" value="return data" style="html=1;verticalAlign=bottom;endArrow=open;dashed=1;endSize=8;curved=0;rounded=0;exitX=0;exitY=1;exitDx=0;exitDy=-5;" edge="1" source="lFg5hrSPJq1oh815YFEz-12" parent="1" target="lFg5hrSPJq1oh815YFEz-10">
          <mxGeometry relative="1" as="geometry">
            <mxPoint x="285" y="269" as="targetPoint" />
          </mxGeometry>
        </mxCell>
        <mxCell id="lFg5hrSPJq1oh815YFEz-15" value="(address, channel, baudrate)" style="text;html=1;strokeColor=none;fillColor=none;align=center;verticalAlign=middle;whiteSpace=wrap;rounded=0;" vertex="1" parent="1">
          <mxGeometry x="168" y="224" width="174" height="30" as="geometry" />
        </mxCell>
        <mxCell id="lFg5hrSPJq1oh815YFEz-16" value="Interaction heading" style="shape=umlFrame;whiteSpace=wrap;html=1;pointerEvents=0;recursiveResize=0;container=1;collapsible=0;width=170;" vertex="1" parent="1">
          <mxGeometry x="-120" y="320" width="980" height="140" as="geometry" />
        </mxCell>
        <mxCell id="lFg5hrSPJq1oh815YFEz-17" value="&lt;b&gt;&lt;font style=&quot;font-size: 15px;&quot;&gt;NO&lt;/font&gt;&lt;/b&gt;" style="text;html=1;" vertex="1" parent="lFg5hrSPJq1oh815YFEz-16">
          <mxGeometry width="30" height="20" relative="1" as="geometry">
            <mxPoint x="180" y="10" as="offset" />
          </mxGeometry>
        </mxCell>
        <mxCell id="lFg5hrSPJq1oh815YFEz-21" value="" style="html=1;points=[[0,0,0,0,5],[0,1,0,0,-5],[1,0,0,0,5],[1,1,0,0,-5]];perimeter=orthogonalPerimeter;outlineConnect=0;targetShapes=umlLifeline;portConstraint=eastwest;newEdgeStyle={&quot;curved&quot;:0,&quot;rounded&quot;:0};" vertex="1" parent="lFg5hrSPJq1oh815YFEz-16">
          <mxGeometry x="270" y="80" width="10" height="40" as="geometry" />
        </mxCell>
        <mxCell id="lFg5hrSPJq1oh815YFEz-22" value="" style="html=1;points=[[0,0,0,0,5],[0,1,0,0,-5],[1,0,0,0,5],[1,1,0,0,-5]];perimeter=orthogonalPerimeter;outlineConnect=0;targetShapes=umlLifeline;portConstraint=eastwest;newEdgeStyle={&quot;curved&quot;:0,&quot;rounded&quot;:0};" vertex="1" parent="lFg5hrSPJq1oh815YFEz-16">
          <mxGeometry x="475" y="85" width="10" height="35" as="geometry" />
        </mxCell>
        <mxCell id="lFg5hrSPJq1oh815YFEz-23" value="write data default" style="html=1;verticalAlign=bottom;endArrow=block;curved=0;rounded=0;entryX=0;entryY=0;entryDx=0;entryDy=5;" edge="1" target="lFg5hrSPJq1oh815YFEz-22" parent="lFg5hrSPJq1oh815YFEz-16" source="lFg5hrSPJq1oh815YFEz-21">
          <mxGeometry relative="1" as="geometry">
            <mxPoint x="405" y="90" as="sourcePoint" />
          </mxGeometry>
        </mxCell>
        <mxCell id="lFg5hrSPJq1oh815YFEz-25" value="&lt;div&gt;set_address_rf24();&lt;/div&gt;&lt;div&gt;set_channel_rf24();&lt;/div&gt;&lt;div&gt;set_baudrate_mosbus();&lt;br&gt;&lt;/div&gt;" style="text;html=1;strokeColor=none;fillColor=none;align=center;verticalAlign=middle;whiteSpace=wrap;rounded=0;" vertex="1" parent="lFg5hrSPJq1oh815YFEz-16">
          <mxGeometry x="90" y="40" width="151" height="70" as="geometry" />
        </mxCell>
        <mxCell id="lFg5hrSPJq1oh815YFEz-28" value="&lt;div&gt;init_rs485_uart2();&lt;/div&gt;" style="html=1;verticalAlign=bottom;endArrow=block;curved=0;rounded=0;entryX=0;entryY=0;entryDx=0;entryDy=5;" edge="1" parent="1" target="lFg5hrSPJq1oh815YFEz-27">
          <mxGeometry x="-0.0012" relative="1" as="geometry">
            <mxPoint x="159" y="490" as="sourcePoint" />
            <mxPoint as="offset" />
          </mxGeometry>
        </mxCell>
        <mxCell id="lFg5hrSPJq1oh815YFEz-30" value="init_nRF24l01();" style="html=1;verticalAlign=bottom;endArrow=block;curved=0;rounded=0;entryX=0;entryY=0;entryDx=0;entryDy=5;" edge="1" parent="1" target="lFg5hrSPJq1oh815YFEz-29">
          <mxGeometry relative="1" as="geometry">
            <mxPoint x="159" y="540" as="sourcePoint" />
          </mxGeometry>
        </mxCell>
        <mxCell id="lFg5hrSPJq1oh815YFEz-31" value="(baudrate)" style="text;whiteSpace=wrap;html=1;" vertex="1" parent="1">
          <mxGeometry x="295" y="490" width="60" height="20" as="geometry" />
        </mxCell>
        <mxCell id="lFg5hrSPJq1oh815YFEz-32" value="(address, channel)" style="text;whiteSpace=wrap;html=1;" vertex="1" parent="1">
          <mxGeometry x="380" y="540" width="120" height="20" as="geometry" />
        </mxCell>
        <mxCell id="CLKx9_vtKcZAz9AbXq3Q-1" value="Buffer" style="shape=umlLifeline;perimeter=lifelinePerimeter;whiteSpace=wrap;html=1;container=1;dropTarget=0;collapsible=0;recursiveResize=0;outlineConnect=0;portConstraint=eastwest;newEdgeStyle={&quot;curved&quot;:0,&quot;rounded&quot;:0};" vertex="1" parent="1">
          <mxGeometry x="800" y="40" width="100" height="540" as="geometry" />
        </mxCell>
        <mxCell id="CLKx9_vtKcZAz9AbXq3Q-2" value="" style="html=1;points=[[0,0,0,0,5],[0,1,0,0,-5],[1,0,0,0,5],[1,1,0,0,-5]];perimeter=orthogonalPerimeter;outlineConnect=0;targetShapes=umlLifeline;portConstraint=eastwest;newEdgeStyle={&quot;curved&quot;:0,&quot;rounded&quot;:0};" vertex="1" parent="1">
          <mxGeometry x="845" y="580" width="10" height="35" as="geometry" />
        </mxCell>
        <mxCell id="CLKx9_vtKcZAz9AbXq3Q-3" value="init_buffer();" style="html=1;verticalAlign=bottom;endArrow=block;curved=0;rounded=0;entryX=0;entryY=0;entryDx=0;entryDy=5;" edge="1" parent="1" source="lFg5hrSPJq1oh815YFEz-26">
          <mxGeometry x="-0.0011" relative="1" as="geometry">
            <mxPoint x="190" y="588" as="sourcePoint" />
            <mxPoint x="845" y="587.5" as="targetPoint" />
            <mxPoint as="offset" />
          </mxGeometry>
        </mxCell>
        <mxCell id="CLKx9_vtKcZAz9AbXq3Q-4" value="(buffer_uart, buffer_nr24)" style="text;whiteSpace=wrap;html=1;" vertex="1" parent="1">
          <mxGeometry x="450" y="587.5" width="120" height="20" as="geometry" />
        </mxCell>
      </root>
    </mxGraphModel>
  </diagram>
  <diagram id="e3z4IiF4BHt0ulagmXcm" name="Page-2">
    <mxGraphModel dx="1235" dy="1507" grid="1" gridSize="10" guides="1" tooltips="1" connect="1" arrows="1" fold="1" page="1" pageScale="1" pageWidth="850" pageHeight="1100" math="0" shadow="0">
      <root>
        <mxCell id="0" />
        <mxCell id="1" parent="0" />
        <mxCell id="tzuWYnrK_tekmQwqD7HS-1" value="&lt;div&gt;Device_1 &lt;br&gt;&lt;/div&gt;&lt;div&gt;RS485&lt;/div&gt;" style="shape=umlLifeline;perimeter=lifelinePerimeter;whiteSpace=wrap;html=1;container=1;dropTarget=0;collapsible=0;recursiveResize=0;outlineConnect=0;portConstraint=eastwest;newEdgeStyle={&quot;curved&quot;:0,&quot;rounded&quot;:0};" vertex="1" parent="1">
          <mxGeometry x="160" y="40" width="100" height="300" as="geometry" />
        </mxCell>
      </root>
    </mxGraphModel>
  </diagram>
</mxfile>
